<svg className="icon-favorite" width="27" height="27" viewBox="0 0 27 27" fill="none" xmlns="http://www.w3.org/2000/svg">
    <rect x="0.5" y="0.5" width="26" height="26" rx="13" fill="white" stroke="#C8C8C8" />
    <path
        d="M13.4806 21.75L12.3574 20.7664C10.9531 19.5038 9.79512 18.4158 8.88341 17.5023C7.9717 16.5888 7.24472 15.7695 6.70246 15.0445C6.16021 14.3194 5.78257 13.6573 5.56954 13.0583C5.35651 12.4593 5.25 11.8503 5.25 11.2311C5.25 9.95468 5.68677 8.88871 6.5603 8.03323C7.43383 7.17774 8.51408 6.75 9.80106 6.75C10.5278 6.75 11.2001 6.90132 11.8179 7.20397C12.4358 7.50662 12.99 7.95429 13.4806 8.54697C14.0487 7.91646 14.6299 7.45933 15.2242 7.1756C15.8186 6.89187 16.4639 6.75 17.1602 6.75C18.4691 6.75 19.5613 7.17792 20.4368 8.03376C21.3123 8.8896 21.75 9.956 21.75 11.233C21.75 11.8505 21.6435 12.4557 21.4305 13.0486C21.2174 13.6415 20.8398 14.3004 20.2975 15.0255C19.7553 15.7506 19.0259 16.5738 18.1095 17.495C17.193 18.4162 16.031 19.5067 14.6232 20.7664L13.4806 21.75ZM13.471 19.4045C14.7715 18.2318 15.8374 17.2356 16.6687 16.4159C17.4999 15.5962 18.1576 14.8805 18.6417 14.2689C19.1259 13.6573 19.4616 13.1133 19.6488 12.6368C19.836 12.1604 19.9296 11.6935 19.9296 11.2362C19.9296 10.4522 19.6723 9.80486 19.1576 9.29414C18.643 8.78342 17.9818 8.52806 17.174 8.52806C16.5412 8.52806 15.9514 8.72982 15.4047 9.13335C14.8579 9.53689 14.4102 10.0917 14.0616 10.7979H12.8996C12.5672 10.0917 12.1222 9.53689 11.5647 9.13335C11.0072 8.72982 10.4189 8.52806 9.79987 8.52806C9.00958 8.52806 8.36033 8.77936 7.85212 9.28197C7.3439 9.78458 7.08979 10.4369 7.08979 11.239C7.08979 11.7153 7.18623 12.1966 7.37912 12.683C7.57201 13.1695 7.91092 13.7209 8.39584 14.3373C8.88077 14.9538 9.53316 15.6687 10.353 16.482C11.1728 17.2954 12.2121 18.2695 13.471 19.4045Z"
        fill="#C8C8C8" />
</svg>