<svg xmlns="http://www.w3.org/2000/svg" xmlns:xlink="http://www.w3.org/1999/xlink" width="500" zoomAndPan="magnify" viewBox="0 0 375 374.999991" height="500" preserveAspectRatio="xMidYMid meet" version="1.0"><defs><g/><clipPath id="017c285509"><path d="M 57.445312 57.445312 L 317.554688 57.445312 L 317.554688 317.554688 L 57.445312 317.554688 Z M 57.445312 57.445312 " clip-rule="nonzero"/></clipPath><clipPath id="3a8d7cef42"><path d="M 187.5 57.445312 C 115.671875 57.445312 57.445312 115.671875 57.445312 187.5 C 57.445312 259.328125 115.671875 317.554688 187.5 317.554688 C 259.328125 317.554688 317.554688 259.328125 317.554688 187.5 C 317.554688 115.671875 259.328125 57.445312 187.5 57.445312 " clip-rule="nonzero"/></clipPath><clipPath id="7f43a3aa46"><path d="M 57.445312 57.445312 L 317.695312 57.445312 L 317.695312 317.695312 L 57.445312 317.695312 Z M 57.445312 57.445312 " clip-rule="nonzero"/></clipPath><clipPath id="c00ed3a65f"><path d="M 187.570312 57.445312 C 115.703125 57.445312 57.445312 115.703125 57.445312 187.570312 C 57.445312 259.433594 115.703125 317.695312 187.570312 317.695312 C 259.433594 317.695312 317.695312 259.433594 317.695312 187.570312 C 317.695312 115.703125 259.433594 57.445312 187.570312 57.445312 " clip-rule="nonzero"/></clipPath><clipPath id="079231baaa"><path d="M 89.332031 89.332031 L 285.667969 89.332031 L 285.667969 285.667969 L 89.332031 285.667969 Z M 89.332031 89.332031 " clip-rule="nonzero"/></clipPath><clipPath id="e6cdfae2ef"><path d="M 187.5 89.332031 C 133.285156 89.332031 89.332031 133.285156 89.332031 187.5 C 89.332031 241.714844 133.285156 285.667969 187.5 285.667969 C 241.714844 285.667969 285.667969 241.714844 285.667969 187.5 C 285.667969 133.285156 241.714844 89.332031 187.5 89.332031 " clip-rule="nonzero"/></clipPath><clipPath id="c3dce6ba75"><path d="M 89.332031 89.332031 L 285.832031 89.332031 L 285.832031 285.832031 L 89.332031 285.832031 Z M 89.332031 89.332031 " clip-rule="nonzero"/></clipPath><clipPath id="17ca71bf6c"><path d="M 187.582031 89.332031 C 133.320312 89.332031 89.332031 133.320312 89.332031 187.582031 C 89.332031 241.84375 133.320312 285.832031 187.582031 285.832031 C 241.84375 285.832031 285.832031 241.84375 285.832031 187.582031 C 285.832031 133.320312 241.84375 89.332031 187.582031 89.332031 " clip-rule="nonzero"/></clipPath></defs><rect x="-37.5" width="450" fill="#ffffff" y="-37.499999" height="449.999989" fill-opacity="1"/><rect x="-37.5" width="450" fill="#ffffff" y="-37.499999" height="449.999989" fill-opacity="1"/><g clip-path="url(#017c285509)"><g clip-path="url(#3a8d7cef42)"><path fill="#ffffff" d="M 57.445312 57.445312 L 317.554688 57.445312 L 317.554688 317.554688 L 57.445312 317.554688 Z M 57.445312 57.445312 " fill-opacity="1" fill-rule="nonzero"/></g></g><g clip-path="url(#7f43a3aa46)"><g clip-path="url(#c00ed3a65f)"><path stroke-linecap="butt" transform="matrix(0.750405, 0, 0, 0.750405, 57.444409, 57.444371)" fill="none" stroke-linejoin="miter" d="M 173.407471 0.00125515 C 77.636323 0.00125515 0.00120438 77.636373 0.00120438 173.407522 C 0.00120438 269.173465 77.636323 346.813788 173.407471 346.813788 C 269.173414 346.813788 346.813738 269.173465 346.813738 173.407522 C 346.813738 77.636373 269.173414 0.00125515 173.407471 0.00125515 " stroke="#000000" stroke-width="10" stroke-opacity="1" stroke-miterlimit="4"/></g></g><g clip-path="url(#079231baaa)"><g clip-path="url(#e6cdfae2ef)"><path fill="#ffffff" d="M 89.332031 89.332031 L 285.667969 89.332031 L 285.667969 285.667969 L 89.332031 285.667969 Z M 89.332031 89.332031 " fill-opacity="1" fill-rule="nonzero"/></g></g><g clip-path="url(#c3dce6ba75)"><g clip-path="url(#17ca71bf6c)"><path stroke-linecap="butt" transform="matrix(0.750671, 0, 0, 0.750671, 89.332931, 89.332962)" fill="none" stroke-linejoin="miter" d="M 130.881619 -0.00124007 C 58.597379 -0.00124007 -0.00119811 58.597337 -0.00119811 130.881577 C -0.00119811 203.165817 58.597379 261.764394 130.881619 261.764394 C 203.165859 261.764394 261.764436 203.165817 261.764436 130.881577 C 261.764436 58.597337 203.165859 -0.00124007 130.881619 -0.00124007 " stroke="#000000" stroke-width="10" stroke-opacity="1" stroke-miterlimit="4"/></g></g><g fill="#000000" fill-opacity="1"><g transform="translate(102.152227, 120.146214)"><g><path d="M 2.9375 -9.21875 L -1.359375 -13.015625 L -2.125 -12.15625 C -2.195312 -12.0625 -2.28125 -12.054688 -2.375 -12.140625 L -2.953125 -12.640625 C -3.035156 -12.710938 -3.039062 -12.796875 -2.96875 -12.890625 L -0.578125 -15.59375 C -0.492188 -15.6875 -0.410156 -15.695312 -0.328125 -15.625 L 0.25 -15.125 C 0.34375 -15.039062 0.347656 -14.953125 0.265625 -14.859375 L -0.5 -14 L 3.703125 -10.28125 C 4.703125 -9.382812 5.234375 -8.4375 5.296875 -7.4375 C 5.367188 -6.445312 4.976562 -5.46875 4.125 -4.5 C 3.269531 -3.539062 2.34375 -3.03125 1.34375 -2.96875 C 0.34375 -2.90625 -0.65625 -3.320312 -1.65625 -4.21875 L -5.859375 -7.9375 L -6.609375 -7.078125 C -6.703125 -6.972656 -6.796875 -6.960938 -6.890625 -7.046875 L -7.46875 -7.546875 C -7.550781 -7.617188 -7.546875 -7.707031 -7.453125 -7.8125 L -5.078125 -10.515625 C -4.992188 -10.609375 -4.910156 -10.617188 -4.828125 -10.546875 L -4.25 -10.046875 C -4.15625 -9.960938 -4.148438 -9.875 -4.234375 -9.78125 L -5 -8.90625 L -0.765625 -5.15625 C 0.671875 -3.882812 2.003906 -3.941406 3.234375 -5.328125 C 3.847656 -6.023438 4.113281 -6.703125 4.03125 -7.359375 C 3.957031 -8.015625 3.59375 -8.632812 2.9375 -9.21875 Z M 2.9375 -9.21875 "/></g></g></g><g fill="#000000" fill-opacity="1"><g transform="translate(109.897313, 111.340887)"><g><path d="M 7.4375 -6.75 L 6.84375 -6.203125 C 6.695312 -6.078125 6.5625 -6.003906 6.4375 -5.984375 C 6.3125 -5.960938 6.148438 -5.976562 5.953125 -6.03125 L -1.8125 -8.15625 L -3.1875 -8.578125 L -3.21875 -8.546875 L 1.734375 -3.078125 L 2.59375 -3.859375 C 2.6875 -3.941406 2.773438 -3.9375 2.859375 -3.84375 L 3.359375 -3.296875 C 3.441406 -3.203125 3.4375 -3.113281 3.34375 -3.03125 L 0.6875 -0.625 C 0.582031 -0.53125 0.488281 -0.53125 0.40625 -0.625 L -0.09375 -1.171875 C -0.175781 -1.265625 -0.164062 -1.359375 -0.0625 -1.453125 L 0.78125 -2.21875 L -4.953125 -8.53125 L -5.796875 -7.765625 C -5.898438 -7.671875 -5.992188 -7.671875 -6.078125 -7.765625 L -6.59375 -8.328125 C -6.664062 -8.410156 -6.648438 -8.5 -6.546875 -8.59375 L -5 -10 C -4.78125 -10.1875 -4.476562 -10.238281 -4.09375 -10.15625 L 3.578125 -8.0625 L 5.171875 -7.546875 L 5.203125 -7.5625 L 0.140625 -13.140625 L -0.71875 -12.375 C -0.800781 -12.289062 -0.882812 -12.296875 -0.96875 -12.390625 L -1.484375 -12.953125 C -1.554688 -13.035156 -1.550781 -13.117188 -1.46875 -13.203125 L 1.21875 -15.625 C 1.300781 -15.707031 1.378906 -15.707031 1.453125 -15.625 L 1.96875 -15.0625 C 2.050781 -14.96875 2.050781 -14.878906 1.96875 -14.796875 L 1.109375 -14.03125 L 7.46875 -7.03125 C 7.550781 -6.9375 7.539062 -6.84375 7.4375 -6.75 Z M 7.4375 -6.75 "/></g></g></g><g fill="#000000" fill-opacity="1"><g transform="translate(118.840905, 103.406895)"><g/></g></g><g fill="#000000" fill-opacity="1"><g transform="translate(122.252665, 100.627729)"><g><path d="M 4.78125 -3.21875 L 0.765625 -0.515625 C 0.648438 -0.441406 0.554688 -0.457031 0.484375 -0.5625 L 0.0625 -1.1875 C 0 -1.289062 0.0234375 -1.378906 0.140625 -1.453125 L 1.078125 -2.09375 L -3.6875 -9.15625 L -4.625 -8.515625 C -4.738281 -8.441406 -4.832031 -8.457031 -4.90625 -8.5625 L -5.328125 -9.1875 C -5.390625 -9.28125 -5.363281 -9.363281 -5.25 -9.4375 L -1.25 -12.140625 C -0.414062 -12.691406 0.375 -12.90625 1.125 -12.78125 C 1.875 -12.664062 2.492188 -12.25 2.984375 -11.53125 C 3.546875 -10.6875 3.597656 -9.8125 3.140625 -8.90625 C 4.410156 -9.3125 5.414062 -8.960938 6.15625 -7.859375 C 6.675781 -7.085938 6.832031 -6.296875 6.625 -5.484375 C 6.425781 -4.671875 5.8125 -3.914062 4.78125 -3.21875 Z M 2.15625 -2.8125 L 4.0625 -4.09375 C 4.71875 -4.539062 5.132812 -5.023438 5.3125 -5.546875 C 5.5 -6.066406 5.394531 -6.617188 5 -7.203125 C 4.300781 -8.242188 3.28125 -8.316406 1.9375 -7.421875 L -0.046875 -6.078125 Z M -0.59375 -6.890625 L 1.3125 -8.171875 C 1.738281 -8.472656 2.03125 -8.851562 2.1875 -9.3125 C 2.34375 -9.769531 2.242188 -10.253906 1.890625 -10.765625 C 1.546875 -11.285156 1.125 -11.546875 0.625 -11.546875 C 0.132812 -11.554688 -0.351562 -11.394531 -0.84375 -11.0625 L -2.609375 -9.875 Z M -0.59375 -6.890625 "/></g></g></g><g fill="#000000" fill-opacity="1"><g transform="translate(130.316129, 95.103775)"><g><path d="M 5.953125 -7.609375 L 3.234375 -12.671875 L 2.21875 -12.140625 C 2.113281 -12.078125 2.035156 -12.097656 1.984375 -12.203125 L 1.625 -12.890625 C 1.5625 -12.984375 1.582031 -13.0625 1.6875 -13.125 L 4.875 -14.828125 C 4.976562 -14.878906 5.0625 -14.859375 5.125 -14.765625 L 5.484375 -14.078125 C 5.535156 -13.972656 5.507812 -13.894531 5.40625 -13.84375 L 4.390625 -13.296875 L 7.046875 -8.34375 C 7.679688 -7.164062 7.851562 -6.097656 7.5625 -5.140625 C 7.28125 -4.179688 6.570312 -3.398438 5.4375 -2.796875 C 4.300781 -2.191406 3.253906 -2.03125 2.296875 -2.3125 C 1.335938 -2.601562 0.539062 -3.335938 -0.09375 -4.515625 L -2.75 -9.46875 L -3.75 -8.9375 C -3.863281 -8.875 -3.945312 -8.894531 -4 -9 L -4.359375 -9.6875 C -4.421875 -9.78125 -4.394531 -9.859375 -4.28125 -9.921875 L -1.109375 -11.625 C -1.003906 -11.675781 -0.921875 -11.65625 -0.859375 -11.5625 L -0.5 -10.875 C -0.445312 -10.769531 -0.472656 -10.691406 -0.578125 -10.640625 L -1.609375 -10.09375 L 1.0625 -5.109375 C 1.96875 -3.421875 3.234375 -3.007812 4.859375 -3.875 C 5.691406 -4.320312 6.1875 -4.863281 6.34375 -5.5 C 6.5 -6.132812 6.367188 -6.835938 5.953125 -7.609375 Z M 5.953125 -7.609375 "/></g></g></g><g fill="#000000" fill-opacity="1"><g transform="translate(140.707844, 89.574324)"><g><path d="M 8.203125 -3.40625 L 0.84375 -0.359375 C 0.71875 -0.304688 0.628906 -0.335938 0.578125 -0.453125 L 0.296875 -1.140625 C 0.242188 -1.265625 0.28125 -1.351562 0.40625 -1.40625 L 1.46875 -1.84375 L -1.78125 -9.703125 L -2.84375 -9.265625 C -2.96875 -9.210938 -3.054688 -9.242188 -3.109375 -9.359375 L -3.40625 -10.0625 C -3.445312 -10.164062 -3.40625 -10.242188 -3.28125 -10.296875 L 4.078125 -13.34375 C 4.203125 -13.394531 4.285156 -13.367188 4.328125 -13.265625 L 5.265625 -11.03125 C 5.304688 -10.914062 5.265625 -10.832031 5.140625 -10.78125 L 4.390625 -10.46875 C 4.273438 -10.414062 4.195312 -10.445312 4.15625 -10.5625 L 3.59375 -11.921875 L -0.578125 -10.1875 L 0.84375 -6.75 L 4.34375 -8.203125 C 4.457031 -8.253906 4.535156 -8.226562 4.578125 -8.125 L 4.875 -7.421875 C 4.914062 -7.304688 4.878906 -7.222656 4.765625 -7.171875 L 1.265625 -5.71875 L 2.671875 -2.328125 L 6.84375 -4.0625 L 6.28125 -5.40625 C 6.238281 -5.519531 6.273438 -5.601562 6.390625 -5.65625 L 7.140625 -5.96875 C 7.265625 -6.019531 7.347656 -5.988281 7.390625 -5.875 L 8.3125 -3.65625 C 8.363281 -3.539062 8.328125 -3.457031 8.203125 -3.40625 Z M 8.203125 -3.40625 "/></g></g></g><g fill="#000000" fill-opacity="1"><g transform="translate(149.321797, 85.910239)"><g><path d="M 9.609375 -2.90625 L 8.84375 -2.671875 C 8.65625 -2.617188 8.5 -2.609375 8.375 -2.640625 C 8.25 -2.679688 8.113281 -2.769531 7.96875 -2.90625 L 1.875 -8.140625 L 0.78125 -9.125 L 0.75 -9.109375 L 2.890625 -2.046875 L 4 -2.390625 C 4.113281 -2.421875 4.191406 -2.375 4.234375 -2.25 L 4.453125 -1.53125 C 4.484375 -1.414062 4.441406 -1.34375 4.328125 -1.3125 L 0.875 -0.265625 C 0.75 -0.222656 0.671875 -0.257812 0.640625 -0.375 L 0.421875 -1.09375 C 0.378906 -1.21875 0.421875 -1.300781 0.546875 -1.34375 L 1.640625 -1.671875 L -0.828125 -9.828125 L -1.921875 -9.5 C -2.046875 -9.457031 -2.125 -9.492188 -2.15625 -9.609375 L -2.375 -10.34375 C -2.414062 -10.445312 -2.375 -10.519531 -2.25 -10.5625 L -0.234375 -11.171875 C 0.046875 -11.253906 0.34375 -11.171875 0.65625 -10.921875 L 6.6875 -5.734375 L 7.921875 -4.59375 L 7.9375 -4.609375 L 5.75 -11.828125 L 4.65625 -11.484375 C 4.539062 -11.453125 4.46875 -11.492188 4.4375 -11.609375 L 4.21875 -12.34375 C 4.175781 -12.445312 4.210938 -12.515625 4.328125 -12.546875 L 7.796875 -13.59375 C 7.898438 -13.632812 7.972656 -13.601562 8.015625 -13.5 L 8.234375 -12.765625 C 8.265625 -12.648438 8.226562 -12.570312 8.125 -12.53125 L 7.015625 -12.203125 L 9.765625 -3.140625 C 9.796875 -3.023438 9.742188 -2.945312 9.609375 -2.90625 Z M 9.609375 -2.90625 "/></g></g></g><g fill="#000000" fill-opacity="1"><g transform="translate(160.802552, 82.57443)"><g/></g></g><g fill="#000000" fill-opacity="1"><g transform="translate(164.990963, 81.440294)"><g><path d="M 12.78125 -1.71875 L 9.34375 -1.265625 C 9.21875 -1.242188 9.144531 -1.296875 9.125 -1.421875 L 9.03125 -2.15625 C 9.007812 -2.28125 9.0625 -2.351562 9.1875 -2.375 L 10.171875 -2.5 L 9.171875 -9.90625 L 9.15625 -9.90625 L 7.296875 -2.515625 C 7.210938 -2.191406 7.007812 -2.007812 6.6875 -1.96875 C 6.375 -1.925781 6.132812 -2.046875 5.96875 -2.328125 L 2.203125 -8.96875 L 2.171875 -8.96875 L 3.171875 -1.5625 L 4.15625 -1.6875 C 4.289062 -1.707031 4.367188 -1.65625 4.390625 -1.53125 L 4.484375 -0.796875 C 4.503906 -0.671875 4.445312 -0.597656 4.3125 -0.578125 L 0.90625 -0.125 C 0.78125 -0.101562 0.707031 -0.15625 0.6875 -0.28125 L 0.59375 -1.015625 C 0.570312 -1.140625 0.625 -1.210938 0.75 -1.234375 L 1.890625 -1.390625 L 0.75 -9.828125 L -0.390625 -9.671875 C -0.515625 -9.648438 -0.582031 -9.703125 -0.59375 -9.828125 L -0.703125 -10.59375 C -0.710938 -10.707031 -0.65625 -10.773438 -0.53125 -10.796875 L 1.75 -11.109375 C 2.09375 -11.148438 2.351562 -11.015625 2.53125 -10.703125 L 5.453125 -5.640625 L 6.421875 -3.859375 L 6.484375 -3.859375 C 6.648438 -4.679688 6.796875 -5.328125 6.921875 -5.796875 L 8.40625 -11.5 C 8.488281 -11.84375 8.707031 -12.039062 9.0625 -12.09375 L 11.34375 -12.390625 C 11.445312 -12.410156 11.503906 -12.363281 11.515625 -12.25 L 11.625 -11.484375 C 11.632812 -11.359375 11.585938 -11.285156 11.484375 -11.265625 L 10.328125 -11.109375 L 11.46875 -2.671875 L 12.625 -2.828125 C 12.726562 -2.847656 12.789062 -2.796875 12.8125 -2.671875 L 12.90625 -1.9375 C 12.925781 -1.8125 12.882812 -1.738281 12.78125 -1.71875 Z M 12.78125 -1.71875 "/></g></g></g><g fill="#000000" fill-opacity="1"><g transform="translate(178.152212, 79.688194)"><g><path d="M 11.046875 -5.640625 C 11.078125 -3.992188 10.609375 -2.648438 9.640625 -1.609375 C 8.679688 -0.566406 7.453125 -0.03125 5.953125 0 C 4.460938 0.03125 3.207031 -0.460938 2.1875 -1.484375 C 1.164062 -2.503906 0.640625 -3.832031 0.609375 -5.46875 C 0.585938 -7.101562 1.082031 -8.421875 2.09375 -9.421875 C 3.101562 -10.429688 4.320312 -10.945312 5.75 -10.96875 C 7.175781 -11 8.410156 -10.53125 9.453125 -9.5625 C 10.492188 -8.59375 11.023438 -7.285156 11.046875 -5.640625 Z M 3.234375 -2.3125 C 4.015625 -1.5625 4.914062 -1.195312 5.9375 -1.21875 C 6.957031 -1.238281 7.835938 -1.640625 8.578125 -2.421875 C 9.328125 -3.203125 9.6875 -4.257812 9.65625 -5.59375 C 9.632812 -6.925781 9.226562 -7.960938 8.4375 -8.703125 C 7.644531 -9.441406 6.753906 -9.800781 5.765625 -9.78125 C 4.773438 -9.757812 3.894531 -9.363281 3.125 -8.59375 C 2.363281 -7.832031 1.992188 -6.785156 2.015625 -5.453125 C 2.046875 -4.117188 2.453125 -3.070312 3.234375 -2.3125 Z M 3.234375 -2.3125 "/></g></g></g><g fill="#000000" fill-opacity="1"><g transform="translate(189.542314, 79.391796)"><g><path d="M 12.828125 1.25 L 9.375 0.90625 C 9.25 0.894531 9.191406 0.828125 9.203125 0.703125 L 9.28125 -0.046875 C 9.289062 -0.171875 9.359375 -0.226562 9.484375 -0.21875 L 10.484375 -0.109375 L 11.203125 -7.53125 L 11.1875 -7.546875 L 7.671875 -0.78125 C 7.523438 -0.488281 7.289062 -0.359375 6.96875 -0.390625 C 6.65625 -0.421875 6.445312 -0.59375 6.34375 -0.90625 L 4.203125 -8.21875 L 4.171875 -8.21875 L 3.453125 -0.796875 L 4.453125 -0.703125 C 4.585938 -0.691406 4.648438 -0.625 4.640625 -0.5 L 4.5625 0.25 C 4.550781 0.375 4.476562 0.429688 4.34375 0.421875 L 0.921875 0.09375 C 0.785156 0.0703125 0.722656 0 0.734375 -0.125 L 0.8125 -0.875 C 0.820312 -1 0.894531 -1.050781 1.03125 -1.03125 L 2.15625 -0.921875 L 2.984375 -9.390625 L 1.859375 -9.5 C 1.722656 -9.519531 1.660156 -9.59375 1.671875 -9.71875 L 1.75 -10.484375 C 1.757812 -10.597656 1.832031 -10.644531 1.96875 -10.625 L 4.25 -10.40625 C 4.59375 -10.375 4.816406 -10.1875 4.921875 -9.84375 L 6.609375 -4.25 L 7.125 -2.28125 L 7.1875 -2.28125 C 7.539062 -3.039062 7.832031 -3.640625 8.0625 -4.078125 L 10.828125 -9.265625 C 10.984375 -9.585938 11.238281 -9.726562 11.59375 -9.6875 L 13.875 -9.46875 C 13.988281 -9.457031 14.039062 -9.394531 14.03125 -9.28125 L 13.953125 -8.515625 C 13.941406 -8.390625 13.878906 -8.332031 13.765625 -8.34375 L 12.609375 -8.453125 L 11.78125 0.015625 L 12.9375 0.125 C 13.050781 0.132812 13.101562 0.203125 13.09375 0.328125 L 13.015625 1.078125 C 13.003906 1.203125 12.941406 1.257812 12.828125 1.25 Z M 12.828125 1.25 "/></g></g></g><g fill="#000000" fill-opacity="1"><g transform="translate(202.78598, 80.761034)"><g><path d="M 8.6875 1.78125 L 0.90625 0.1875 C 0.769531 0.15625 0.710938 0.078125 0.734375 -0.046875 L 0.890625 -0.78125 C 0.921875 -0.90625 1.003906 -0.953125 1.140625 -0.921875 L 2.25 -0.6875 L 3.953125 -9.015625 L 2.84375 -9.25 C 2.707031 -9.28125 2.65625 -9.359375 2.6875 -9.484375 L 2.84375 -10.234375 C 2.863281 -10.347656 2.941406 -10.390625 3.078125 -10.359375 L 10.859375 -8.765625 C 10.992188 -8.734375 11.050781 -8.660156 11.03125 -8.546875 L 10.53125 -6.171875 C 10.507812 -6.054688 10.429688 -6.015625 10.296875 -6.046875 L 9.5 -6.203125 C 9.394531 -6.222656 9.351562 -6.289062 9.375 -6.40625 L 9.671875 -7.84375 L 5.234375 -8.765625 L 4.484375 -5.125 L 8.203125 -4.359375 C 8.316406 -4.328125 8.363281 -4.253906 8.34375 -4.140625 L 8.1875 -3.390625 C 8.164062 -3.273438 8.097656 -3.234375 7.984375 -3.265625 L 4.265625 -4.03125 L 3.53125 -0.4375 L 7.953125 0.484375 L 8.234375 -0.953125 C 8.265625 -1.066406 8.335938 -1.113281 8.453125 -1.09375 L 9.25 -0.9375 C 9.382812 -0.90625 9.4375 -0.832031 9.40625 -0.71875 L 8.921875 1.640625 C 8.898438 1.765625 8.820312 1.8125 8.6875 1.78125 Z M 8.6875 1.78125 "/></g></g></g><g fill="#000000" fill-opacity="1"><g transform="translate(211.97132, 82.565011)"><g><path d="M 9.59375 2.984375 L 8.8125 2.75 C 8.632812 2.695312 8.503906 2.617188 8.421875 2.515625 C 8.335938 2.410156 8.269531 2.257812 8.21875 2.0625 L 6.109375 -5.6875 L 5.765625 -7.09375 L 5.734375 -7.109375 L 3.53125 -0.078125 L 4.640625 0.265625 C 4.753906 0.304688 4.796875 0.390625 4.765625 0.515625 L 4.546875 1.234375 C 4.503906 1.347656 4.425781 1.382812 4.3125 1.34375 L 0.875 0.28125 C 0.75 0.238281 0.707031 0.160156 0.75 0.046875 L 0.96875 -0.671875 C 1 -0.796875 1.078125 -0.835938 1.203125 -0.796875 L 2.296875 -0.46875 L 4.84375 -8.59375 L 3.75 -8.921875 C 3.625 -8.960938 3.578125 -9.039062 3.609375 -9.15625 L 3.84375 -9.890625 C 3.875 -10.003906 3.953125 -10.039062 4.078125 -10 L 6.078125 -9.390625 C 6.359375 -9.296875 6.554688 -9.054688 6.671875 -8.671875 L 8.765625 -1 L 9.125 0.640625 L 9.15625 0.640625 L 11.40625 -6.546875 L 10.296875 -6.890625 C 10.191406 -6.921875 10.15625 -6.992188 10.1875 -7.109375 L 10.421875 -7.84375 C 10.453125 -7.957031 10.519531 -8 10.625 -7.96875 L 14.09375 -6.890625 C 14.195312 -6.847656 14.234375 -6.769531 14.203125 -6.65625 L 13.96875 -5.921875 C 13.9375 -5.804688 13.867188 -5.769531 13.765625 -5.8125 L 12.65625 -6.15625 L 9.84375 2.875 C 9.800781 2.988281 9.71875 3.023438 9.59375 2.984375 Z M 9.59375 2.984375 "/></g></g></g><g fill="#000000" fill-opacity="1"><g transform="translate(223.270143, 86.102506)"><g><path d="M 6.59375 2.84375 L 3.375 1.453125 C 3.257812 1.398438 3.226562 1.316406 3.28125 1.203125 L 3.578125 0.515625 C 3.617188 0.398438 3.695312 0.367188 3.8125 0.421875 L 4.859375 0.875 L 8.234375 -6.953125 L 5.640625 -8.078125 L 5.015625 -6.625 C 4.960938 -6.488281 4.867188 -6.445312 4.734375 -6.5 L 3.96875 -6.828125 C 3.832031 -6.890625 3.789062 -6.988281 3.84375 -7.125 L 4.84375 -9.4375 C 4.894531 -9.550781 4.988281 -9.578125 5.125 -9.515625 L 13.421875 -5.953125 C 13.554688 -5.890625 13.597656 -5.800781 13.546875 -5.6875 L 12.546875 -3.375 C 12.492188 -3.238281 12.398438 -3.203125 12.265625 -3.265625 L 11.484375 -3.59375 C 11.359375 -3.644531 11.320312 -3.738281 11.375 -3.875 L 12 -5.328125 L 9.4375 -6.4375 L 6.0625 1.390625 L 7.03125 1.8125 C 7.144531 1.863281 7.179688 1.945312 7.140625 2.0625 L 6.84375 2.75 C 6.789062 2.863281 6.707031 2.894531 6.59375 2.84375 Z M 6.59375 2.84375 "/></g></g></g><g fill="#000000" fill-opacity="1"><g transform="translate(232.891954, 90.192751)"><g><path d="M 12.390625 0.6875 C 11.585938 2.125 10.503906 3.050781 9.140625 3.46875 C 7.785156 3.882812 6.457031 3.726562 5.15625 3 C 3.851562 2.269531 3.015625 1.207031 2.640625 -0.1875 C 2.273438 -1.582031 2.488281 -2.992188 3.28125 -4.421875 C 4.082031 -5.847656 5.171875 -6.738281 6.546875 -7.09375 C 7.929688 -7.445312 9.242188 -7.273438 10.484375 -6.578125 C 11.734375 -5.878906 12.5625 -4.851562 12.96875 -3.5 C 13.382812 -2.144531 13.191406 -0.75 12.390625 0.6875 Z M 3.953125 -0.375 C 4.253906 0.664062 4.847656 1.4375 5.734375 1.9375 C 6.628906 2.4375 7.59375 2.535156 8.625 2.234375 C 9.664062 1.941406 10.507812 1.210938 11.15625 0.046875 C 11.8125 -1.117188 11.984375 -2.21875 11.671875 -3.25 C 11.367188 -4.289062 10.785156 -5.050781 9.921875 -5.53125 C 9.054688 -6.019531 8.097656 -6.125 7.046875 -5.84375 C 5.992188 -5.570312 5.140625 -4.851562 4.484375 -3.6875 C 3.835938 -2.519531 3.660156 -1.414062 3.953125 -0.375 Z M 3.953125 -0.375 "/></g></g></g><path fill="#ffffff" d="M 42.050781 178.835938 L 322.128906 127.570312 C 325.242188 127 328.226562 129.066406 328.796875 132.179688 L 337.050781 177.292969 C 337.621094 180.40625 335.5625 183.394531 332.453125 183.960938 L 52.371094 235.226562 C 50.878906 235.5 49.335938 235.167969 48.085938 234.304688 C 46.835938 233.441406 45.980469 232.113281 45.707031 230.621094 L 37.449219 185.507812 C 36.878906 182.390625 38.941406 179.40625 42.050781 178.835938 " fill-opacity="1" fill-rule="nonzero"/><g fill="#000000" fill-opacity="1"><g transform="translate(48.99832, 222.716268)"><g><path d="M 62.84375 -11.5 L 43.3125 -7.921875 L 25.734375 -17.09375 L 17.953125 -9.40625 L 19.03125 -3.484375 L 4 -0.734375 L -2.5625 -36.578125 L 12.46875 -39.328125 L 15.5 -22.75 L 36.59375 -43.75 L 56.28125 -47.34375 L 33.8125 -25.109375 Z M 62.84375 -11.5 "/></g></g></g><g fill="#000000" fill-opacity="1"><g transform="translate(114.764579, 210.678654)"><g><path d="M 60.1875 -11.015625 L 44.953125 -8.234375 L 40.515625 -13.484375 L 17.90625 -9.34375 L 15.609375 -2.859375 L 0.375 -0.0625 L 16.75 -40.078125 L 30.71875 -42.640625 Z M 33.8125 -21.421875 L 25.609375 -31.15625 L 21.34375 -19.140625 Z M 33.8125 -21.421875 "/></g></g></g><g fill="#000000" fill-opacity="1"><g transform="translate(177.883613, 199.125579)"><g><path d="M 19.03125 -3.484375 L 4 -0.734375 L -2.5625 -36.578125 L 38.625 -44.109375 L 40.25 -35.234375 L 14.09375 -30.453125 L 15.125 -24.828125 L 37.21875 -28.875 L 38.484375 -22 L 16.390625 -17.953125 Z M 19.03125 -3.484375 "/></g></g></g><g fill="#000000" fill-opacity="1"><g transform="translate(227.616673, 190.022624)"><g><path d="M 19.03125 -3.484375 L 4 -0.734375 L -2.5625 -36.578125 L 38.625 -44.109375 L 40.25 -35.234375 L 14.09375 -30.453125 L 15.125 -24.828125 L 37.21875 -28.875 L 38.484375 -22 L 16.390625 -17.953125 Z M 19.03125 -3.484375 "/></g></g></g><g fill="#000000" fill-opacity="1"><g transform="translate(277.349734, 180.919668)"><g><path d="M 27.234375 -4.1875 C 18.378906 -2.570312 11.53125 -3.203125 6.6875 -6.078125 C 2.394531 -8.628906 -0.257812 -12.691406 -1.28125 -18.265625 C -2.300781 -23.828125 -1.253906 -28.5625 1.859375 -32.46875 C 5.367188 -36.882812 11.550781 -39.898438 20.40625 -41.515625 C 29.269531 -43.140625 36.125 -42.515625 40.96875 -39.640625 C 45.25 -37.078125 47.898438 -33.015625 48.921875 -27.453125 C 49.941406 -21.878906 48.898438 -17.144531 45.796875 -13.25 C 42.285156 -8.832031 36.097656 -5.8125 27.234375 -4.1875 Z M 25.46875 -13.796875 C 29.09375 -14.460938 31.570312 -15.988281 32.90625 -18.375 C 33.957031 -20.320312 34.273438 -22.429688 33.859375 -24.703125 C 33.441406 -26.984375 32.398438 -28.832031 30.734375 -30.25 C 28.640625 -32.03125 25.78125 -32.585938 22.15625 -31.921875 C 18.53125 -31.265625 16.054688 -29.734375 14.734375 -27.328125 C 13.660156 -25.398438 13.332031 -23.296875 13.75 -21.015625 C 14.164062 -18.742188 15.21875 -16.890625 16.90625 -15.453125 C 18.988281 -13.691406 21.84375 -13.140625 25.46875 -13.796875 Z M 25.46875 -13.796875 "/></g></g></g><path fill="#ffffff" d="M 86.246094 220.828125 L 286.09375 186.628906 C 288.734375 186.175781 291.449219 186.789062 293.632812 188.335938 C 295.820312 189.878906 297.300781 192.230469 297.753906 194.867188 L 301.15625 214.753906 C 301.609375 217.390625 300.992188 220.097656 299.445312 222.28125 C 297.894531 224.464844 295.542969 225.949219 292.902344 226.398438 L 93.054688 260.601562 C 87.554688 261.542969 82.335938 257.855469 81.394531 252.363281 L 77.992188 232.476562 C 77.050781 226.984375 80.75 221.769531 86.246094 220.828125 " fill-opacity="1" fill-rule="nonzero"/><g fill="#000000" fill-opacity="1"><g transform="translate(90.583459, 249.305986)"><g><path d="M 15.765625 -7.109375 C 15.847656 -7.054688 15.894531 -6.984375 15.90625 -6.890625 C 15.925781 -6.804688 15.910156 -6.679688 15.859375 -6.515625 C 15.816406 -6.359375 15.734375 -6.140625 15.609375 -5.859375 C 15.484375 -5.585938 15.242188 -5.203125 14.890625 -4.703125 C 14.535156 -4.210938 14.132812 -3.769531 13.6875 -3.375 C 13.238281 -2.976562 12.617188 -2.585938 11.828125 -2.203125 C 11.046875 -1.828125 10.179688 -1.5625 9.234375 -1.40625 C 6.929688 -1.007812 4.875 -1.484375 3.0625 -2.828125 C 1.25 -4.179688 0.117188 -6.160156 -0.328125 -8.765625 C -0.773438 -11.367188 -0.359375 -13.578125 0.921875 -15.390625 C 2.210938 -17.203125 3.957031 -18.300781 6.15625 -18.6875 C 8.59375 -19.101562 10.507812 -18.5625 11.90625 -17.0625 L 11.53125 -19.15625 C 11.46875 -19.34375 11.539062 -19.457031 11.75 -19.5 L 13.078125 -19.71875 C 13.285156 -19.75 13.40625 -19.664062 13.4375 -19.46875 L 14.3125 -14.328125 C 14.351562 -14.128906 14.269531 -14.015625 14.0625 -13.984375 L 12.578125 -13.734375 C 12.390625 -13.703125 12.273438 -13.785156 12.234375 -13.984375 L 12.203125 -14.1875 C 12.078125 -14.914062 11.457031 -15.582031 10.34375 -16.1875 C 9.226562 -16.800781 7.9375 -16.984375 6.46875 -16.734375 C 5 -16.484375 3.773438 -15.675781 2.796875 -14.3125 C 1.828125 -12.957031 1.519531 -11.21875 1.875 -9.09375 C 2.238281 -6.976562 3.113281 -5.429688 4.5 -4.453125 C 5.882812 -3.472656 7.367188 -3.125 8.953125 -3.40625 C 10.679688 -3.695312 11.972656 -4.316406 12.828125 -5.265625 C 13.492188 -5.992188 13.957031 -6.703125 14.21875 -7.390625 C 14.300781 -7.640625 14.445312 -7.707031 14.65625 -7.59375 Z M 15.765625 -7.109375 "/></g></g></g><g fill="#000000" fill-opacity="1"><g transform="translate(108.364117, 246.263039)"><g><path d="M 18.171875 -3.109375 L 12.828125 -2.203125 C 12.628906 -2.160156 12.515625 -2.234375 12.484375 -2.421875 L 12.28125 -3.640625 C 12.25 -3.816406 12.332031 -3.925781 12.53125 -3.96875 L 14.1875 -4.25 L 11.9375 -8.09375 L 5.34375 -6.953125 L 4.515625 -2.59375 L 6.15625 -2.875 C 6.351562 -2.90625 6.46875 -2.832031 6.5 -2.65625 L 6.703125 -1.4375 C 6.734375 -1.25 6.648438 -1.140625 6.453125 -1.109375 L 1.140625 -0.1875 C 0.941406 -0.15625 0.828125 -0.234375 0.796875 -0.421875 L 0.59375 -1.640625 C 0.5625 -1.816406 0.644531 -1.921875 0.84375 -1.953125 L 2.421875 -2.234375 L 5.203125 -16.5625 L 3.921875 -16.34375 C 3.710938 -16.300781 3.59375 -16.375 3.5625 -16.5625 L 3.359375 -17.75 C 3.328125 -17.945312 3.414062 -18.066406 3.625 -18.109375 L 6.84375 -18.65625 C 7.21875 -18.71875 7.515625 -18.6875 7.734375 -18.5625 C 7.960938 -18.4375 8.179688 -18.207031 8.390625 -17.875 L 16.265625 -4.59375 L 17.875 -4.875 C 18.0625 -4.90625 18.171875 -4.832031 18.203125 -4.65625 L 18.40625 -3.4375 C 18.4375 -3.25 18.359375 -3.140625 18.171875 -3.109375 Z M 11.03125 -9.609375 L 7.1875 -16.171875 L 7.125 -16.15625 L 5.6875 -8.6875 Z M 11.03125 -9.609375 "/></g></g></g><g fill="#000000" fill-opacity="1"><g transform="translate(128.249134, 242.859956)"><g><path d="M 7.984375 -1.359375 L 1.453125 -0.25 C 1.242188 -0.207031 1.125 -0.28125 1.09375 -0.46875 L 0.890625 -1.6875 C 0.859375 -1.863281 0.945312 -1.972656 1.15625 -2.015625 L 2.9375 -2.3125 L 0.625 -15.765625 L -1.15625 -15.46875 C -1.363281 -15.425781 -1.484375 -15.5 -1.515625 -15.6875 L -1.71875 -16.875 C -1.75 -17.070312 -1.660156 -17.191406 -1.453125 -17.234375 L 10.671875 -19.3125 C 10.878906 -19.34375 11 -19.257812 11.03125 -19.0625 L 11.6875 -15.265625 C 11.71875 -15.054688 11.628906 -14.9375 11.421875 -14.90625 L 10.15625 -14.6875 C 9.957031 -14.65625 9.84375 -14.742188 9.8125 -14.953125 L 9.40625 -17.28125 L 2.6875 -16.125 L 3.703125 -10.25 L 9.265625 -11.203125 C 9.472656 -11.234375 9.59375 -11.15625 9.625 -10.96875 L 9.828125 -9.765625 C 9.859375 -9.578125 9.769531 -9.46875 9.5625 -9.4375 L 4 -8.484375 L 5 -2.671875 L 7.6875 -3.125 C 7.863281 -3.15625 7.96875 -3.082031 8 -2.90625 L 8.203125 -1.6875 C 8.234375 -1.5 8.160156 -1.390625 7.984375 -1.359375 Z M 7.984375 -1.359375 "/></g></g></g><g fill="#000000" fill-opacity="1"><g transform="translate(143.263383, 240.290447)"><g><path d="M 5.25 -25.015625 C 5.300781 -25.085938 5.367188 -25.128906 5.453125 -25.140625 C 5.535156 -25.148438 5.625 -25.117188 5.71875 -25.046875 L 6.609375 -24.296875 C 6.753906 -24.148438 6.765625 -23.992188 6.640625 -23.828125 L 3.21875 -19.984375 C 3.050781 -19.847656 2.898438 -19.84375 2.765625 -19.96875 L 2.0625 -20.5625 C 1.882812 -20.707031 1.875 -20.859375 2.03125 -21.015625 Z M 14 -2.390625 L 1.453125 -0.25 C 1.242188 -0.207031 1.125 -0.28125 1.09375 -0.46875 L 0.890625 -1.6875 C 0.859375 -1.863281 0.945312 -1.972656 1.15625 -2.015625 L 2.9375 -2.3125 L 0.625 -15.765625 L -1.15625 -15.46875 C -1.363281 -15.425781 -1.484375 -15.5 -1.515625 -15.6875 L -1.71875 -16.875 C -1.75 -17.070312 -1.660156 -17.191406 -1.453125 -17.234375 L 11.09375 -19.375 C 11.300781 -19.414062 11.421875 -19.335938 11.453125 -19.140625 L 12.109375 -15.34375 C 12.140625 -15.132812 12.050781 -15.007812 11.84375 -14.96875 L 10.5625 -14.75 C 10.375 -14.71875 10.265625 -14.804688 10.234375 -15.015625 L 9.828125 -17.34375 L 2.6875 -16.125 L 3.703125 -10.25 L 9.6875 -11.28125 C 9.894531 -11.3125 10.015625 -11.234375 10.046875 -11.046875 L 10.25 -9.84375 C 10.28125 -9.65625 10.191406 -9.546875 9.984375 -9.515625 L 4 -8.484375 L 5 -2.671875 L 12.109375 -3.890625 L 11.703125 -6.21875 C 11.671875 -6.40625 11.757812 -6.515625 11.96875 -6.546875 L 13.25 -6.765625 C 13.457031 -6.804688 13.578125 -6.734375 13.609375 -6.546875 L 14.265625 -2.734375 C 14.296875 -2.546875 14.207031 -2.429688 14 -2.390625 Z M 14 -2.390625 "/></g></g></g><g fill="#000000" fill-opacity="1"><g transform="translate(158.703241, 237.6481)"><g/></g></g><g fill="#000000" fill-opacity="1"><g transform="translate(166.103966, 236.381555)"><g><path d="M 11.296875 -1.9375 L 5.796875 -0.984375 C 5.585938 -0.953125 5.46875 -1.039062 5.4375 -1.25 L 5.234375 -2.40625 C 5.203125 -2.601562 5.289062 -2.71875 5.5 -2.75 L 7.296875 -3.0625 L 4.984375 -16.515625 L 0.515625 -15.75 L 0.953125 -13.234375 C 0.992188 -13.003906 0.898438 -12.875 0.671875 -12.84375 L -0.640625 -12.609375 C -0.859375 -12.566406 -0.988281 -12.660156 -1.03125 -12.890625 L -1.71875 -16.859375 C -1.75 -17.066406 -1.65625 -17.191406 -1.4375 -17.234375 L 12.8125 -19.671875 C 13.039062 -19.710938 13.171875 -19.628906 13.203125 -19.421875 L 13.890625 -15.453125 C 13.929688 -15.222656 13.835938 -15.085938 13.609375 -15.046875 L 12.28125 -14.828125 C 12.070312 -14.785156 11.945312 -14.878906 11.90625 -15.109375 L 11.46875 -17.625 L 7.046875 -16.875 L 9.359375 -3.421875 L 11 -3.703125 C 11.226562 -3.742188 11.359375 -3.664062 11.390625 -3.46875 L 11.59375 -2.3125 C 11.625 -2.101562 11.523438 -1.976562 11.296875 -1.9375 Z M 11.296875 -1.9375 "/></g></g></g><g fill="#000000" fill-opacity="1"><g transform="translate(183.293513, 233.439769)"><g><path d="M 16.140625 -11.578125 C 16.585938 -8.992188 16.171875 -6.757812 14.890625 -4.875 C 13.609375 -2.988281 11.789062 -1.84375 9.4375 -1.4375 C 7.082031 -1.03125 4.972656 -1.507812 3.109375 -2.875 C 1.253906 -4.238281 0.109375 -6.207031 -0.328125 -8.78125 C -0.765625 -11.351562 -0.3125 -13.554688 1.03125 -15.390625 C 2.382812 -17.234375 4.1875 -18.347656 6.4375 -18.734375 C 8.695312 -19.117188 10.769531 -18.671875 12.65625 -17.390625 C 14.539062 -16.109375 15.703125 -14.171875 16.140625 -11.578125 Z M 4.5625 -4.4375 C 5.976562 -3.4375 7.488281 -3.070312 9.09375 -3.34375 C 10.695312 -3.625 11.992188 -4.472656 12.984375 -5.890625 C 13.984375 -7.304688 14.300781 -9.066406 13.9375 -11.171875 C 13.582031 -13.273438 12.691406 -14.816406 11.265625 -15.796875 C 9.835938 -16.785156 8.34375 -17.144531 6.78125 -16.875 C 5.21875 -16.601562 3.921875 -15.765625 2.890625 -14.359375 C 1.867188 -12.960938 1.535156 -11.210938 1.890625 -9.109375 C 2.253906 -7.003906 3.144531 -5.445312 4.5625 -4.4375 Z M 4.5625 -4.4375 "/></g></g></g><g fill="#000000" fill-opacity="1"><g transform="translate(202.043594, 230.230917)"><g><path d="M 2.765625 -0.46875 L 1.453125 -0.25 C 1.242188 -0.207031 1.125 -0.28125 1.09375 -0.46875 L 0.140625 -6.015625 C 0.109375 -6.210938 0.195312 -6.332031 0.40625 -6.375 L 1.875 -6.625 C 2.070312 -6.65625 2.1875 -6.570312 2.21875 -6.375 L 2.3125 -5.875 C 2.363281 -5.5625 2.613281 -5.191406 3.0625 -4.765625 C 3.507812 -4.335938 3.9375 -3.992188 4.34375 -3.734375 C 4.757812 -3.484375 5.289062 -3.296875 5.9375 -3.171875 C 6.582031 -3.046875 7.265625 -3.046875 7.984375 -3.171875 C 9.203125 -3.378906 10.109375 -3.789062 10.703125 -4.40625 C 11.304688 -5.03125 11.53125 -5.796875 11.375 -6.703125 C 11.289062 -7.210938 11.019531 -7.617188 10.5625 -7.921875 C 10.113281 -8.222656 9.5625 -8.429688 8.90625 -8.546875 C 8.25 -8.660156 7.53125 -8.75 6.75 -8.8125 C 5.976562 -8.882812 5.195312 -8.976562 4.40625 -9.09375 C 3.613281 -9.207031 2.878906 -9.378906 2.203125 -9.609375 C 1.523438 -9.847656 0.941406 -10.234375 0.453125 -10.765625 C -0.0351562 -11.304688 -0.347656 -11.988281 -0.484375 -12.8125 C -0.710938 -14.132812 -0.398438 -15.316406 0.453125 -16.359375 C 1.304688 -17.398438 2.570312 -18.066406 4.25 -18.359375 C 6.375 -18.722656 8.046875 -18.367188 9.265625 -17.296875 L 8.96875 -18.75 C 8.9375 -18.9375 9.023438 -19.046875 9.234375 -19.078125 L 10.546875 -19.296875 C 10.734375 -19.328125 10.84375 -19.25 10.875 -19.0625 L 11.75 -13.90625 C 11.78125 -13.71875 11.703125 -13.609375 11.515625 -13.578125 L 10.03125 -13.328125 C 9.84375 -13.296875 9.734375 -13.375 9.703125 -13.5625 L 9.59375 -14.234375 C 9.476562 -14.878906 9 -15.46875 8.15625 -16 C 7.320312 -16.539062 6.207031 -16.691406 4.8125 -16.453125 C 3.769531 -16.273438 2.96875 -15.878906 2.40625 -15.265625 C 1.851562 -14.660156 1.644531 -13.972656 1.78125 -13.203125 C 1.875 -12.648438 2.148438 -12.210938 2.609375 -11.890625 C 3.078125 -11.566406 3.644531 -11.335938 4.3125 -11.203125 C 4.988281 -11.078125 5.71875 -10.976562 6.5 -10.90625 C 7.289062 -10.84375 8.085938 -10.757812 8.890625 -10.65625 C 9.691406 -10.550781 10.429688 -10.382812 11.109375 -10.15625 C 11.796875 -9.925781 12.382812 -9.554688 12.875 -9.046875 C 13.375 -8.546875 13.6875 -7.90625 13.8125 -7.125 C 14.050781 -5.726562 13.753906 -4.492188 12.921875 -3.421875 C 12.085938 -2.359375 10.6875 -1.65625 8.71875 -1.3125 C 7.257812 -1.0625 6.007812 -1.148438 4.96875 -1.578125 C 3.925781 -2.003906 3.128906 -2.519531 2.578125 -3.125 L 3 -0.796875 C 3.03125 -0.609375 2.953125 -0.5 2.765625 -0.46875 Z M 2.765625 -0.46875 "/></g></g></g><g fill="#000000" fill-opacity="1"><g transform="translate(217.790823, 227.535967)"><g><path d="M 11.296875 -1.9375 L 5.796875 -0.984375 C 5.585938 -0.953125 5.46875 -1.039062 5.4375 -1.25 L 5.234375 -2.40625 C 5.203125 -2.601562 5.289062 -2.71875 5.5 -2.75 L 7.296875 -3.0625 L 4.984375 -16.515625 L 0.515625 -15.75 L 0.953125 -13.234375 C 0.992188 -13.003906 0.898438 -12.875 0.671875 -12.84375 L -0.640625 -12.609375 C -0.859375 -12.566406 -0.988281 -12.660156 -1.03125 -12.890625 L -1.71875 -16.859375 C -1.75 -17.066406 -1.65625 -17.191406 -1.4375 -17.234375 L 12.8125 -19.671875 C 13.039062 -19.710938 13.171875 -19.628906 13.203125 -19.421875 L 13.890625 -15.453125 C 13.929688 -15.222656 13.835938 -15.085938 13.609375 -15.046875 L 12.28125 -14.828125 C 12.070312 -14.785156 11.945312 -14.878906 11.90625 -15.109375 L 11.46875 -17.625 L 7.046875 -16.875 L 9.359375 -3.421875 L 11 -3.703125 C 11.226562 -3.742188 11.359375 -3.664062 11.390625 -3.46875 L 11.59375 -2.3125 C 11.625 -2.101562 11.523438 -1.976562 11.296875 -1.9375 Z M 11.296875 -1.9375 "/></g></g></g><g fill="#000000" fill-opacity="1"><g transform="translate(234.98037, 224.594182)"><g><path d="M 18.171875 -3.109375 L 12.828125 -2.203125 C 12.628906 -2.160156 12.515625 -2.234375 12.484375 -2.421875 L 12.28125 -3.640625 C 12.25 -3.816406 12.332031 -3.925781 12.53125 -3.96875 L 14.1875 -4.25 L 11.9375 -8.09375 L 5.34375 -6.953125 L 4.515625 -2.59375 L 6.15625 -2.875 C 6.351562 -2.90625 6.46875 -2.832031 6.5 -2.65625 L 6.703125 -1.4375 C 6.734375 -1.25 6.648438 -1.140625 6.453125 -1.109375 L 1.140625 -0.1875 C 0.941406 -0.15625 0.828125 -0.234375 0.796875 -0.421875 L 0.59375 -1.640625 C 0.5625 -1.816406 0.644531 -1.921875 0.84375 -1.953125 L 2.421875 -2.234375 L 5.203125 -16.5625 L 3.921875 -16.34375 C 3.710938 -16.300781 3.59375 -16.375 3.5625 -16.5625 L 3.359375 -17.75 C 3.328125 -17.945312 3.414062 -18.066406 3.625 -18.109375 L 6.84375 -18.65625 C 7.21875 -18.71875 7.515625 -18.6875 7.734375 -18.5625 C 7.960938 -18.4375 8.179688 -18.207031 8.390625 -17.875 L 16.265625 -4.59375 L 17.875 -4.875 C 18.0625 -4.90625 18.171875 -4.832031 18.203125 -4.65625 L 18.40625 -3.4375 C 18.4375 -3.25 18.359375 -3.140625 18.171875 -3.109375 Z M 11.03125 -9.609375 L 7.1875 -16.171875 L 7.125 -16.15625 L 5.6875 -8.6875 Z M 11.03125 -9.609375 "/></g></g></g><g fill="#000000" fill-opacity="1"><g transform="translate(254.865387, 221.191099)"><g><path d="M 8.078125 -1.390625 L 1.296875 -0.21875 C 1.109375 -0.1875 1 -0.265625 0.96875 -0.453125 L 0.765625 -1.671875 C 0.734375 -1.847656 0.8125 -1.953125 1 -1.984375 L 2.828125 -2.296875 L 0.515625 -15.75 L -1.3125 -15.4375 C -1.5 -15.40625 -1.609375 -15.484375 -1.640625 -15.671875 L -1.84375 -16.859375 C -1.875 -17.054688 -1.796875 -17.171875 -1.609375 -17.203125 L 4.78125 -18.296875 C 7.394531 -18.742188 9.601562 -18.34375 11.40625 -17.09375 C 13.21875 -15.851562 14.347656 -13.914062 14.796875 -11.28125 C 15.242188 -8.65625 14.863281 -6.457031 13.65625 -4.6875 C 12.457031 -2.914062 10.597656 -1.816406 8.078125 -1.390625 Z M 4.875 -2.65625 L 7.21875 -3.046875 C 11.59375 -3.828125 13.398438 -6.4375 12.640625 -10.875 C 12.273438 -13 11.425781 -14.554688 10.09375 -15.546875 C 8.769531 -16.546875 7.019531 -16.863281 4.84375 -16.5 L 2.5625 -16.109375 Z M 4.875 -2.65625 "/></g></g></g><g fill="#000000" fill-opacity="1"><g transform="translate(272.362317, 218.196708)"><g><path d="M 16.140625 -11.578125 C 16.585938 -8.992188 16.171875 -6.757812 14.890625 -4.875 C 13.609375 -2.988281 11.789062 -1.84375 9.4375 -1.4375 C 7.082031 -1.03125 4.972656 -1.507812 3.109375 -2.875 C 1.253906 -4.238281 0.109375 -6.207031 -0.328125 -8.78125 C -0.765625 -11.351562 -0.3125 -13.554688 1.03125 -15.390625 C 2.382812 -17.234375 4.1875 -18.347656 6.4375 -18.734375 C 8.695312 -19.117188 10.769531 -18.671875 12.65625 -17.390625 C 14.539062 -16.109375 15.703125 -14.171875 16.140625 -11.578125 Z M 4.5625 -4.4375 C 5.976562 -3.4375 7.488281 -3.070312 9.09375 -3.34375 C 10.695312 -3.625 11.992188 -4.472656 12.984375 -5.890625 C 13.984375 -7.304688 14.300781 -9.066406 13.9375 -11.171875 C 13.582031 -13.273438 12.691406 -14.816406 11.265625 -15.796875 C 9.835938 -16.785156 8.34375 -17.144531 6.78125 -16.875 C 5.21875 -16.601562 3.921875 -15.765625 2.890625 -14.359375 C 1.867188 -12.960938 1.535156 -11.210938 1.890625 -9.109375 C 2.253906 -7.003906 3.144531 -5.445312 4.5625 -4.4375 Z M 4.5625 -4.4375 "/></g></g></g><g fill="#000000" fill-opacity="1"><g transform="translate(122.888983, 283.761295)"><g><path d="M 4.09375 2.5625 L 0.78125 0.484375 C 0.664062 0.410156 0.640625 0.320312 0.703125 0.21875 L 1.109375 -0.421875 C 1.171875 -0.523438 1.257812 -0.539062 1.375 -0.46875 L 2.34375 0.140625 L 6.875 -7.078125 L 5.90625 -7.6875 C 5.789062 -7.757812 5.765625 -7.847656 5.828125 -7.953125 L 6.25 -8.59375 C 6.300781 -8.6875 6.382812 -8.695312 6.5 -8.625 L 10.40625 -6.171875 C 11.300781 -5.609375 11.875 -4.882812 12.125 -4 C 12.375 -3.125 12.21875 -2.242188 11.65625 -1.359375 C 11.101562 -0.472656 10.394531 0.0351562 9.53125 0.171875 C 8.664062 0.304688 7.722656 0.0546875 6.703125 -0.578125 L 5 -1.65625 L 3.4375 0.828125 L 4.6875 1.609375 C 4.789062 1.679688 4.8125 1.769531 4.75 1.875 L 4.34375 2.515625 C 4.28125 2.617188 4.195312 2.632812 4.09375 2.5625 Z M 5.5625 -2.5625 L 7.21875 -1.515625 C 8.632812 -0.628906 9.738281 -0.8125 10.53125 -2.0625 C 10.9375 -2.71875 11.039062 -3.332031 10.84375 -3.90625 C 10.644531 -4.476562 10.242188 -4.957031 9.640625 -5.34375 L 7.96875 -6.390625 Z M 5.5625 -2.5625 "/></g></g></g><g fill="#000000" fill-opacity="1"><g transform="translate(131.619064, 289.298417)"><g><path d="M 10.328125 5.109375 L 7.28125 3.609375 C 7.175781 3.554688 7.148438 3.472656 7.203125 3.359375 L 7.546875 2.6875 C 7.597656 2.570312 7.675781 2.539062 7.78125 2.59375 L 8.734375 3.0625 L 9.015625 0.3125 L 5.25 -1.546875 L 3.234375 0.328125 L 4.171875 0.796875 C 4.285156 0.859375 4.316406 0.945312 4.265625 1.0625 L 3.921875 1.734375 C 3.867188 1.847656 3.785156 1.875 3.671875 1.8125 L 0.640625 0.3125 C 0.535156 0.269531 0.507812 0.191406 0.5625 0.078125 L 0.90625 -0.59375 C 0.957031 -0.707031 1.035156 -0.742188 1.140625 -0.703125 L 2.046875 -0.25 L 8.71875 -6.4375 L 8 -6.796875 C 7.875 -6.859375 7.835938 -6.945312 7.890625 -7.0625 L 8.234375 -7.75 C 8.285156 -7.851562 8.375 -7.875 8.5 -7.8125 L 10.328125 -6.90625 C 10.546875 -6.800781 10.6875 -6.675781 10.75 -6.53125 C 10.8125 -6.382812 10.828125 -6.191406 10.796875 -5.953125 L 9.90625 3.640625 L 10.828125 4.09375 C 10.929688 4.144531 10.957031 4.226562 10.90625 4.34375 L 10.5625 5.015625 C 10.507812 5.128906 10.429688 5.160156 10.328125 5.109375 Z M 9.09375 -0.796875 L 9.578125 -5.53125 L 9.546875 -5.546875 L 6.0625 -2.296875 Z M 9.09375 -0.796875 "/></g></g></g><g fill="#000000" fill-opacity="1"><g transform="translate(143.388645, 295.038597)"><g><path d="M 9.21875 3.40625 L 7.984375 2.953125 C 7.648438 2.828125 7.457031 2.5 7.40625 1.96875 L 7.046875 -1.203125 C 7.035156 -1.472656 6.988281 -1.6875 6.90625 -1.84375 C 6.820312 -2.007812 6.664062 -2.140625 6.4375 -2.234375 L 4.65625 -2.890625 L 3.546875 0.109375 L 4.796875 0.5625 C 4.921875 0.613281 4.960938 0.703125 4.921875 0.828125 L 4.65625 1.53125 C 4.613281 1.644531 4.53125 1.675781 4.40625 1.625 L 0.859375 0.3125 C 0.734375 0.269531 0.691406 0.191406 0.734375 0.078125 L 1 -0.625 C 1.039062 -0.75 1.125 -0.789062 1.25 -0.75 L 2.328125 -0.34375 L 5.28125 -8.328125 L 4.203125 -8.734375 C 4.078125 -8.773438 4.035156 -8.851562 4.078125 -8.96875 L 4.34375 -9.6875 C 4.382812 -9.789062 4.46875 -9.820312 4.59375 -9.78125 L 8.921875 -8.171875 C 9.929688 -7.796875 10.65625 -7.226562 11.09375 -6.46875 C 11.53125 -5.71875 11.566406 -4.859375 11.203125 -3.890625 C 10.660156 -2.410156 9.625 -1.75 8.09375 -1.90625 C 8.226562 -1.6875 8.335938 -1.285156 8.421875 -0.703125 L 8.75 2.03125 L 9.609375 2.34375 C 9.710938 2.382812 9.742188 2.46875 9.703125 2.59375 L 9.4375 3.296875 C 9.394531 3.410156 9.320312 3.445312 9.21875 3.40625 Z M 5.03125 -3.890625 L 6.828125 -3.234375 C 8.421875 -2.640625 9.457031 -2.992188 9.9375 -4.296875 C 10.4375 -5.648438 9.890625 -6.625 8.296875 -7.21875 L 6.5 -7.875 Z M 5.03125 -3.890625 "/></g></g></g><g fill="#000000" fill-opacity="1"><g transform="translate(153.893038, 298.953657)"><g><path d="M 11.15625 2.84375 L 7.875 2 C 7.757812 1.976562 7.71875 1.90625 7.75 1.78125 L 7.9375 1.0625 C 7.96875 0.9375 8.039062 0.882812 8.15625 0.90625 L 9.1875 1.171875 L 8.875 -1.578125 L 4.8125 -2.625 L 3.234375 -0.34375 L 4.25 -0.078125 C 4.375 -0.046875 4.421875 0.03125 4.390625 0.15625 L 4.203125 0.875 C 4.171875 1 4.09375 1.046875 3.96875 1.015625 L 0.703125 0.171875 C 0.585938 0.148438 0.546875 0.078125 0.578125 -0.046875 L 0.765625 -0.765625 C 0.796875 -0.890625 0.867188 -0.941406 0.984375 -0.921875 L 1.953125 -0.671875 L 7.171875 -8.125 L 6.390625 -8.328125 C 6.253906 -8.359375 6.203125 -8.4375 6.234375 -8.5625 L 6.421875 -9.296875 C 6.453125 -9.410156 6.535156 -9.453125 6.671875 -9.421875 L 8.65625 -8.90625 C 8.882812 -8.851562 9.046875 -8.757812 9.140625 -8.625 C 9.234375 -8.5 9.296875 -8.316406 9.328125 -8.078125 L 10.453125 1.5 L 11.4375 1.75 C 11.5625 1.78125 11.609375 1.859375 11.578125 1.984375 L 11.390625 2.703125 C 11.359375 2.828125 11.28125 2.875 11.15625 2.84375 Z M 8.734375 -2.6875 L 8.21875 -7.40625 L 8.171875 -7.421875 L 5.4375 -3.515625 Z M 8.734375 -2.6875 "/></g></g></g><g fill="#000000" fill-opacity="1"><g transform="translate(166.496555, 301.992286)"><g/></g></g><g fill="#000000" fill-opacity="1"><g transform="translate(171.446753, 302.982244)"><g><path d="M 9.171875 -3.046875 L 9.71875 -8.75 L 8.578125 -8.859375 C 8.460938 -8.867188 8.410156 -8.9375 8.421875 -9.0625 L 8.5 -9.828125 C 8.507812 -9.941406 8.570312 -9.992188 8.6875 -9.984375 L 12.296875 -9.640625 C 12.410156 -9.628906 12.460938 -9.566406 12.453125 -9.453125 L 12.375 -8.6875 C 12.363281 -8.5625 12.300781 -8.503906 12.1875 -8.515625 L 11.03125 -8.625 L 10.5 -3.046875 C 10.363281 -1.703125 9.910156 -0.710938 9.140625 -0.078125 C 8.378906 0.554688 7.359375 0.8125 6.078125 0.6875 C 4.796875 0.570312 3.832031 0.128906 3.1875 -0.640625 C 2.550781 -1.410156 2.300781 -2.46875 2.4375 -3.8125 L 2.96875 -9.390625 L 1.84375 -9.5 C 1.707031 -9.519531 1.644531 -9.59375 1.65625 -9.71875 L 1.734375 -10.484375 C 1.742188 -10.597656 1.816406 -10.644531 1.953125 -10.625 L 5.53125 -10.28125 C 5.65625 -10.269531 5.710938 -10.207031 5.703125 -10.09375 L 5.625 -9.328125 C 5.613281 -9.203125 5.546875 -9.144531 5.421875 -9.15625 L 4.265625 -9.265625 L 3.71875 -3.640625 C 3.539062 -1.734375 4.367188 -0.695312 6.203125 -0.53125 C 7.140625 -0.4375 7.847656 -0.613281 8.328125 -1.0625 C 8.804688 -1.507812 9.085938 -2.171875 9.171875 -3.046875 Z M 9.171875 -3.046875 "/></g></g></g><g fill="#000000" fill-opacity="1"><g transform="translate(184.108938, 304.169802)"><g><path d="M 10.046875 -0.140625 L 9.234375 -0.140625 C 9.046875 -0.128906 8.894531 -0.160156 8.78125 -0.234375 C 8.675781 -0.304688 8.570312 -0.425781 8.46875 -0.59375 L 4.03125 -7.3125 L 3.265625 -8.546875 L 3.234375 -8.546875 L 3.34375 -1.171875 L 4.5 -1.1875 C 4.625 -1.1875 4.6875 -1.125 4.6875 -1 L 4.703125 -0.25 C 4.703125 -0.125 4.640625 -0.0625 4.515625 -0.0625 L 0.921875 -0.015625 C 0.785156 -0.015625 0.71875 -0.078125 0.71875 -0.203125 L 0.703125 -0.953125 C 0.703125 -1.078125 0.769531 -1.140625 0.90625 -1.140625 L 2.046875 -1.15625 L 1.921875 -9.671875 L 0.78125 -9.65625 C 0.644531 -9.65625 0.578125 -9.71875 0.578125 -9.84375 L 0.5625 -10.609375 C 0.5625 -10.722656 0.628906 -10.78125 0.765625 -10.78125 L 2.859375 -10.8125 C 3.148438 -10.8125 3.40625 -10.648438 3.625 -10.328125 L 8.015625 -3.6875 L 8.875 -2.234375 L 8.90625 -2.234375 L 8.796875 -9.765625 L 7.640625 -9.75 C 7.523438 -9.75 7.46875 -9.8125 7.46875 -9.9375 L 7.453125 -10.703125 C 7.453125 -10.816406 7.507812 -10.875 7.625 -10.875 L 11.25 -10.9375 C 11.363281 -10.9375 11.421875 -10.878906 11.421875 -10.765625 L 11.4375 -10 C 11.4375 -9.875 11.378906 -9.8125 11.265625 -9.8125 L 10.109375 -9.796875 L 10.25 -0.34375 C 10.25 -0.21875 10.179688 -0.148438 10.046875 -0.140625 Z M 10.046875 -0.140625 "/></g></g></g><g fill="#000000" fill-opacity="1"><g transform="translate(196.747562, 303.825119)"><g/></g></g><g fill="#000000" fill-opacity="1"><g transform="translate(201.736837, 303.451709)"><g><path d="M 5.6875 -0.90625 L 0.90625 -0.140625 C 0.769531 -0.117188 0.691406 -0.171875 0.671875 -0.296875 L 0.5625 -1.03125 C 0.539062 -1.15625 0.597656 -1.226562 0.734375 -1.25 L 1.859375 -1.4375 L 0.515625 -9.84375 L -0.609375 -9.65625 C -0.742188 -9.632812 -0.820312 -9.6875 -0.84375 -9.8125 L -0.96875 -10.578125 C -0.988281 -10.679688 -0.929688 -10.742188 -0.796875 -10.765625 L 3.96875 -11.53125 C 4.957031 -11.6875 5.765625 -11.550781 6.390625 -11.125 C 7.023438 -10.695312 7.410156 -10.054688 7.546875 -9.203125 C 7.710938 -8.203125 7.394531 -7.378906 6.59375 -6.734375 C 7.914062 -6.578125 8.679688 -5.847656 8.890625 -4.546875 C 9.035156 -3.617188 8.84375 -2.828125 8.3125 -2.171875 C 7.789062 -1.523438 6.914062 -1.101562 5.6875 -0.90625 Z M 3.140625 -1.640625 L 5.40625 -2 C 6.195312 -2.125 6.78125 -2.382812 7.15625 -2.78125 C 7.539062 -3.175781 7.675781 -3.722656 7.5625 -4.421875 C 7.363281 -5.660156 6.46875 -6.15625 4.875 -5.90625 L 2.515625 -5.53125 Z M 2.359375 -6.5 L 4.625 -6.859375 C 5.144531 -6.953125 5.570312 -7.171875 5.90625 -7.515625 C 6.238281 -7.867188 6.351562 -8.351562 6.25 -8.96875 C 6.15625 -9.582031 5.882812 -9.992188 5.4375 -10.203125 C 5 -10.410156 4.488281 -10.46875 3.90625 -10.375 L 1.796875 -10.046875 Z M 2.359375 -6.5 "/></g></g></g><g fill="#000000" fill-opacity="1"><g transform="translate(212.287855, 301.794596)"><g><path d="M 7.546875 -6.046875 L 6.078125 -11.578125 L 4.96875 -11.28125 C 4.851562 -11.25 4.78125 -11.296875 4.75 -11.421875 L 4.546875 -12.15625 C 4.515625 -12.269531 4.554688 -12.34375 4.671875 -12.375 L 8.171875 -13.3125 C 8.273438 -13.332031 8.34375 -13.285156 8.375 -13.171875 L 8.578125 -12.4375 C 8.609375 -12.3125 8.570312 -12.238281 8.46875 -12.21875 L 7.34375 -11.921875 L 8.78125 -6.5 C 9.125 -5.207031 9.046875 -4.125 8.546875 -3.25 C 8.054688 -2.382812 7.1875 -1.785156 5.9375 -1.453125 C 4.695312 -1.128906 3.644531 -1.21875 2.78125 -1.71875 C 1.914062 -2.226562 1.3125 -3.128906 0.96875 -4.421875 L -0.46875 -9.84375 L -1.578125 -9.546875 C -1.710938 -9.515625 -1.796875 -9.5625 -1.828125 -9.6875 L -2.03125 -10.421875 C -2.0625 -10.535156 -2.007812 -10.609375 -1.875 -10.640625 L 1.59375 -11.5625 C 1.71875 -11.59375 1.796875 -11.550781 1.828125 -11.4375 L 2.03125 -10.703125 C 2.0625 -10.578125 2.015625 -10.5 1.890625 -10.46875 L 0.78125 -10.171875 L 2.234375 -4.703125 C 2.722656 -2.859375 3.859375 -2.171875 5.640625 -2.640625 C 6.546875 -2.890625 7.144531 -3.304688 7.4375 -3.890625 C 7.726562 -4.472656 7.765625 -5.191406 7.546875 -6.046875 Z M 7.546875 -6.046875 "/></g></g></g><g fill="#000000" fill-opacity="1"><g transform="translate(224.504749, 298.470356)"><g><path d="M 8.3125 -3.109375 L 0.859375 -0.328125 C 0.734375 -0.273438 0.648438 -0.304688 0.609375 -0.421875 L 0.34375 -1.125 C 0.300781 -1.238281 0.34375 -1.320312 0.46875 -1.375 L 1.546875 -1.765625 L -1.4375 -9.75 L -2.515625 -9.359375 C -2.640625 -9.304688 -2.726562 -9.335938 -2.78125 -9.453125 L -3.046875 -10.171875 C -3.085938 -10.273438 -3.046875 -10.351562 -2.921875 -10.40625 L 4.53125 -13.1875 C 4.65625 -13.238281 4.738281 -13.210938 4.78125 -13.109375 L 5.640625 -10.84375 C 5.679688 -10.726562 5.640625 -10.644531 5.515625 -10.59375 L 4.75 -10.3125 C 4.644531 -10.269531 4.570312 -10.304688 4.53125 -10.421875 L 4.015625 -11.796875 L -0.234375 -10.203125 L 1.0625 -6.71875 L 4.625 -8.0625 C 4.738281 -8.101562 4.816406 -8.070312 4.859375 -7.96875 L 5.125 -7.25 C 5.164062 -7.132812 5.128906 -7.054688 5.015625 -7.015625 L 1.453125 -5.671875 L 2.75 -2.21875 L 6.984375 -3.8125 L 6.46875 -5.1875 C 6.425781 -5.3125 6.460938 -5.394531 6.578125 -5.4375 L 7.34375 -5.71875 C 7.46875 -5.769531 7.550781 -5.734375 7.59375 -5.609375 L 8.4375 -3.359375 C 8.476562 -3.242188 8.4375 -3.160156 8.3125 -3.109375 Z M 8.3125 -3.109375 "/></g></g></g><g fill="#000000" fill-opacity="1"><g transform="translate(234.121739, 294.912991)"><g><path d="M 9.015625 -4.4375 L 8.28125 -4.078125 C 8.113281 -3.992188 7.960938 -3.960938 7.828125 -3.984375 C 7.703125 -4.003906 7.554688 -4.0625 7.390625 -4.15625 L 0.515625 -8.328125 L -0.703125 -9.125 L -0.734375 -9.109375 L 2.515625 -2.5 L 3.546875 -3.015625 C 3.660156 -3.066406 3.742188 -3.035156 3.796875 -2.921875 L 4.140625 -2.25 C 4.191406 -2.132812 4.160156 -2.050781 4.046875 -2 L 0.828125 -0.40625 C 0.703125 -0.34375 0.613281 -0.367188 0.5625 -0.484375 L 0.21875 -1.15625 C 0.164062 -1.269531 0.203125 -1.359375 0.328125 -1.421875 L 1.34375 -1.921875 L -2.421875 -9.5625 L -3.4375 -9.0625 C -3.5625 -9 -3.648438 -9.019531 -3.703125 -9.125 L -4.046875 -9.8125 C -4.085938 -9.914062 -4.046875 -10 -3.921875 -10.0625 L -2.046875 -10.984375 C -1.785156 -11.117188 -1.484375 -11.082031 -1.140625 -10.875 L 5.65625 -6.765625 L 7.046875 -5.828125 L 7.078125 -5.84375 L 3.75 -12.609375 L 2.71875 -12.09375 C 2.613281 -12.039062 2.535156 -12.066406 2.484375 -12.171875 L 2.140625 -12.859375 C 2.097656 -12.960938 2.128906 -13.039062 2.234375 -13.09375 L 5.484375 -14.703125 C 5.585938 -14.742188 5.660156 -14.710938 5.703125 -14.609375 L 6.046875 -13.921875 C 6.097656 -13.816406 6.070312 -13.742188 5.96875 -13.703125 L 4.921875 -13.1875 L 9.109375 -4.703125 C 9.160156 -4.585938 9.128906 -4.5 9.015625 -4.4375 Z M 9.015625 -4.4375 "/></g></g></g><g fill="#000000" fill-opacity="1"><g transform="translate(245.393278, 289.185441)"><g/></g></g><g fill="#000000" fill-opacity="1"><g transform="translate(249.773613, 286.718942)"><g><path d="M 7.046875 -8.1875 C 7.109375 -8.1875 7.15625 -8.160156 7.1875 -8.109375 C 7.21875 -8.066406 7.242188 -7.992188 7.265625 -7.890625 C 7.285156 -7.785156 7.296875 -7.632812 7.296875 -7.4375 C 7.296875 -7.25 7.257812 -6.96875 7.1875 -6.59375 C 7.113281 -6.226562 7 -5.875 6.84375 -5.53125 C 6.695312 -5.1875 6.453125 -4.800781 6.109375 -4.375 C 5.765625 -3.945312 5.347656 -3.5625 4.859375 -3.21875 C 3.660156 -2.394531 2.367188 -2.125 0.984375 -2.40625 C -0.398438 -2.6875 -1.5625 -3.507812 -2.5 -4.875 C -3.445312 -6.238281 -3.796875 -7.601562 -3.546875 -8.96875 C -3.296875 -10.332031 -2.597656 -11.410156 -1.453125 -12.203125 C -0.179688 -13.078125 1.050781 -13.28125 2.25 -12.8125 L 1.46875 -13.90625 C 1.382812 -13.976562 1.398438 -14.054688 1.515625 -14.140625 L 2.203125 -14.625 C 2.304688 -14.6875 2.390625 -14.671875 2.453125 -14.578125 L 4.3125 -11.890625 C 4.382812 -11.785156 4.367188 -11.703125 4.265625 -11.640625 L 3.484375 -11.09375 C 3.390625 -11.03125 3.304688 -11.050781 3.234375 -11.15625 L 3.15625 -11.265625 C 2.894531 -11.640625 2.367188 -11.847656 1.578125 -11.890625 C 0.785156 -11.941406 0.0078125 -11.703125 -0.75 -11.171875 C -1.519531 -10.640625 -2.003906 -9.859375 -2.203125 -8.828125 C -2.398438 -7.804688 -2.113281 -6.742188 -1.34375 -5.640625 C -0.582031 -4.535156 0.316406 -3.890625 1.359375 -3.703125 C 2.398438 -3.523438 3.335938 -3.722656 4.171875 -4.296875 C 5.066406 -4.921875 5.632812 -5.609375 5.875 -6.359375 C 6.0625 -6.953125 6.140625 -7.476562 6.109375 -7.9375 C 6.085938 -8.101562 6.148438 -8.179688 6.296875 -8.171875 Z M 7.046875 -8.1875 "/></g></g></g><g fill="#000000" fill-opacity="1"><g transform="translate(259.458732, 280.01977)"><g><path d="M 8.703125 -7.53125 L 6.140625 -5.3125 C 6.054688 -5.238281 5.972656 -5.25 5.890625 -5.34375 L 5.40625 -5.90625 C 5.320312 -6 5.320312 -6.082031 5.40625 -6.15625 L 6.21875 -6.859375 L 3.765625 -8.1875 L 0.59375 -5.4375 L 1.5625 -2.84375 L 2.359375 -3.515625 C 2.453125 -3.597656 2.539062 -3.59375 2.625 -3.5 L 3.109375 -2.9375 C 3.191406 -2.84375 3.1875 -2.753906 3.09375 -2.671875 L 0.546875 -0.46875 C 0.453125 -0.394531 0.363281 -0.40625 0.28125 -0.5 L -0.203125 -1.0625 C -0.285156 -1.15625 -0.28125 -1.238281 -0.1875 -1.3125 L 0.5625 -1.96875 L -2.5625 -10.53125 L -3.1875 -10 C -3.28125 -9.914062 -3.367188 -9.921875 -3.453125 -10.015625 L -3.953125 -10.59375 C -4.023438 -10.675781 -4.015625 -10.757812 -3.921875 -10.84375 L -2.375 -12.1875 C -2.1875 -12.34375 -2.007812 -12.425781 -1.84375 -12.4375 C -1.6875 -12.445312 -1.503906 -12.390625 -1.296875 -12.265625 L 7.203125 -7.71875 L 7.96875 -8.375 C 8.0625 -8.457031 8.148438 -8.453125 8.234375 -8.359375 L 8.71875 -7.796875 C 8.800781 -7.703125 8.796875 -7.613281 8.703125 -7.53125 Z M 2.78125 -8.703125 L -1.375 -10.96875 L -1.40625 -10.9375 L 0.21875 -6.484375 Z M 2.78125 -8.703125 "/></g></g></g><g fill="#000000" fill-opacity="1"><g transform="translate(269.27373, 271.391272)"><g><path d="M 3.484375 -3.671875 L 0.640625 -0.671875 C 0.546875 -0.566406 0.453125 -0.554688 0.359375 -0.640625 L -0.1875 -1.15625 C -0.269531 -1.238281 -0.265625 -1.332031 -0.171875 -1.4375 L 0.609375 -2.265625 L -5.578125 -8.125 L -6.359375 -7.296875 C -6.453125 -7.191406 -6.546875 -7.179688 -6.640625 -7.265625 L -7.203125 -7.796875 C -7.273438 -7.878906 -7.265625 -7.972656 -7.171875 -8.078125 L -1.890625 -13.65625 C -1.796875 -13.757812 -1.710938 -13.769531 -1.640625 -13.6875 L 0.125 -12.015625 C 0.21875 -11.929688 0.21875 -11.835938 0.125 -11.734375 L -0.4375 -11.140625 C -0.519531 -11.054688 -0.609375 -11.054688 -0.703125 -11.140625 L -1.765625 -12.15625 L -4.6875 -9.0625 L -1.984375 -6.5 L 0.4375 -9.0625 C 0.519531 -9.15625 0.601562 -9.164062 0.6875 -9.09375 L 1.234375 -8.5625 C 1.328125 -8.476562 1.332031 -8.390625 1.25 -8.296875 L -1.171875 -5.734375 L 1.5 -3.203125 L 2.671875 -4.4375 C 2.742188 -4.519531 2.820312 -4.519531 2.90625 -4.4375 L 3.453125 -3.921875 C 3.546875 -3.835938 3.554688 -3.753906 3.484375 -3.671875 Z M 3.484375 -3.671875 "/></g></g></g><g fill="#000000" fill-opacity="1"><g transform="translate(276.08442, 264.175906)"><g><path d="M -7.96875 -13.84375 C -7.976562 -13.894531 -7.96875 -13.9375 -7.9375 -13.96875 C -7.90625 -14.007812 -7.847656 -14.035156 -7.765625 -14.046875 L -7.046875 -14.0625 C -6.910156 -14.050781 -6.84375 -13.984375 -6.84375 -13.859375 L -6.828125 -10.640625 C -6.847656 -10.515625 -6.914062 -10.453125 -7.03125 -10.453125 L -7.609375 -10.421875 C -7.753906 -10.421875 -7.820312 -10.492188 -7.8125 -10.640625 Z M 5.515625 -6.953125 L 0.578125 -0.71875 C 0.492188 -0.613281 0.40625 -0.597656 0.3125 -0.671875 L -0.28125 -1.140625 C -0.375 -1.222656 -0.378906 -1.316406 -0.296875 -1.421875 L 0.40625 -2.3125 L -6.265625 -7.609375 L -6.96875 -6.71875 C -7.050781 -6.613281 -7.144531 -6.597656 -7.25 -6.671875 L -7.84375 -7.140625 C -7.9375 -7.210938 -7.941406 -7.300781 -7.859375 -7.40625 L -2.921875 -13.640625 C -2.835938 -13.742188 -2.75 -13.757812 -2.65625 -13.6875 L -0.765625 -12.1875 C -0.660156 -12.113281 -0.648438 -12.023438 -0.734375 -11.921875 L -1.234375 -11.28125 C -1.304688 -11.195312 -1.394531 -11.191406 -1.5 -11.265625 L -2.640625 -12.1875 L -5.453125 -8.625 L -2.546875 -6.3125 L -0.1875 -9.296875 C -0.113281 -9.390625 -0.03125 -9.398438 0.0625 -9.328125 L 0.65625 -8.84375 C 0.757812 -8.769531 0.773438 -8.6875 0.703125 -8.59375 L -1.65625 -5.609375 L 1.21875 -3.328125 L 4.015625 -6.875 L 2.859375 -7.78125 C 2.765625 -7.863281 2.757812 -7.953125 2.84375 -8.046875 L 3.34375 -8.6875 C 3.425781 -8.789062 3.515625 -8.800781 3.609375 -8.71875 L 5.5 -7.21875 C 5.59375 -7.144531 5.597656 -7.054688 5.515625 -6.953125 Z M 5.515625 -6.953125 "/></g></g></g></svg>