<svg className="icon-buscador" width="21" height="20" viewBox="0 0 21 20" fill="none"
    xmlns="http://www.w3.org/2000/svg">
    <mask id="mask0_155_1612" maskUnits="userSpaceOnUse" x="0" y="0" width="21" height="20">
        <rect x="0.455078" width="20.0143" height="20" fill="#D9D9D9" />
    </mask>
    <g mask="url(#mask0_155_1612)">
        <path
            d="M16.7999 17.5L11.5461 12.25C11.1292 12.5833 10.6497 12.8472 10.1076 13.0417C9.56556 13.2361 8.98876 13.3333 8.37721 13.3333C6.86224 13.3333 5.58007 12.809 4.53071 11.7604C3.48135 10.7118 2.95667 9.43056 2.95667 7.91667C2.95667 6.40278 3.48135 5.12153 4.53071 4.07292C5.58007 3.02431 6.86224 2.5 8.37721 2.5C9.89218 2.5 11.1744 3.02431 12.2237 4.07292C13.2731 5.12153 13.7978 6.40278 13.7978 7.91667C13.7978 8.52778 13.7005 9.10417 13.5059 9.64583C13.3113 10.1875 13.0472 10.6667 12.7136 11.0833L17.9674 16.3333L16.7999 17.5ZM8.37721 11.6667C9.41962 11.6667 10.3057 11.3021 11.0354 10.5729C11.7651 9.84375 12.1299 8.95833 12.1299 7.91667C12.1299 6.875 11.7651 5.98958 11.0354 5.26042C10.3057 4.53125 9.41962 4.16667 8.37721 4.16667C7.3348 4.16667 6.44875 4.53125 5.71906 5.26042C4.98937 5.98958 4.62453 6.875 4.62453 7.91667C4.62453 8.95833 4.98937 9.84375 5.71906 10.5729C6.44875 11.3021 7.3348 11.6667 8.37721 11.6667Z"
            fill="#1C1B1F" />
    </g>
</svg>